<?xml version="1.0" encoding="utf-8"?>
<!-- Generator: Adobe Illustrator 18.0.0, SVG Export Plug-In . SVG Version: 6.00 Build 0)  -->
<!DOCTYPE svg PUBLIC "-//W3C//DTD SVG 1.1//EN" "http://www.w3.org/Graphics/SVG/1.1/DTD/svg11.dtd">
<svg version="1.1" id="Слой_1" xmlns="http://www.w3.org/2000/svg" xmlns:xlink="http://www.w3.org/1999/xlink" x="0px" y="0px"
	 width="641.999px" height="235px" viewBox="0 0 641.999 235" style="enable-background:new 0 0 641.999 235;" xml:space="preserve"
	>
<style type="text/css">
	.st0{fill:#6C8DC7;}
	.st1{fill:#D0D1D3;}
	.st2{fill:#919396;}
	.st3{fill:#4F689F;}
	.st4{fill:#262323;}
	.st5{fill:#92A2AE;}
	.st6{fill:#FFFFFF;}
	.st7{fill-rule:evenodd;clip-rule:evenodd;fill:#FFFFFF;}
	.st8{fill-rule:evenodd;clip-rule:evenodd;fill:#0099A2;}
	.st9{fill:none;stroke:#868685;stroke-width:0.5;}
	.st10{font-family:'SiemensSans-Roman';}
	.st11{font-size:12.4095;}
	.st12{fill:none;}
</style>
<g>
	<g id="Слой_1-3">
		<g id="_3044809860144">
			<polygon class="st0" points="98.824,116.157 98.824,139.492 140.729,111.911 140.729,88.538 			"/>
			<polygon class="st1" points="98.824,147.956 98.824,171.357 140.729,143.738 140.729,120.347 			"/>
			<polygon class="st1" points="56.881,120.347 56.881,143.738 98.824,116.157 98.824,92.756 			"/>
			<polygon class="st0" points="56.881,88.538 56.881,111.911 98.824,84.292 98.824,60.957 			"/>
			<polygon class="st2" points="98.824,147.956 98.824,171.357 56.881,143.738 56.881,120.347 			"/>
			<polygon class="st3" points="98.824,116.157 98.824,139.492 56.881,111.911 56.881,88.538 			"/>
			<polygon class="st4" points="149.24,88.538 154.628,88.538 154.628,98.002 154.713,98.002 162.846,88.538 169.688,88.538 
				159.921,99.229 170.291,111.76 163.101,111.76 154.713,101.078 154.628,101.078 154.628,111.76 149.24,111.76 			"/>
			<path class="st4" d="M188.135,100.05c0-4.067-2.661-7.086-6.53-7.086s-6.445,3.019-6.445,7.086c0,4.218,2.633,7.2,6.445,7.2
				S188.135,104.258,188.135,100.05z M169.263,100.05c0-7.407,5.275-12.153,12.342-12.153s12.399,4.718,12.399,12.153
				s-5.237,12.333-12.361,12.333c-7.124,0-12.342-4.982-12.342-12.333H169.263z"/>
			<polygon class="st4" points="197.25,88.538 202.751,88.538 202.751,97.361 211.602,97.361 211.602,88.538 217.046,88.538 
				217.046,111.76 211.602,111.76 211.602,102.069 202.751,102.069 202.751,111.76 197.25,111.76 			"/>
			<path class="st4" d="M220.283,100.135c0-7.464,5.388-12.267,12.314-12.267c3.18,0,6.605,1.198,8.492,3.454l-3.727,3.774
				c-1.113-1.367-2.806-2.129-4.567-2.057c-3.774,0-6.605,2.991-6.605,7.115c0,4.123,2.689,7.086,6.473,7.086
				c1.888,0.047,3.677-0.839,4.784-2.368l3.774,3.689c-2.192,2.555-5.43,3.969-8.794,3.84c-6.992,0-12.267-4.982-12.267-12.267
				L220.283,100.135z"/>
			<path class="st4" d="M260.669,100.05c0-4.067-2.689-7.086-6.501-7.086s-6.473,3.02-6.473,7.086c0,4.218,2.661,7.2,6.473,7.2
				S260.669,104.258,260.669,100.05z M241.797,100.05c0-7.407,5.246-12.153,12.342-12.153c7.096,0,12.427,4.746,12.427,12.153
				c0,7.407-5.275,12.333-12.37,12.333c-7.096,0-12.342-4.982-12.342-12.333H241.797z"/>
			<polygon class="st4" points="269.774,88.538 277.597,88.538 282.758,103.447 282.871,103.447 287.797,88.538 295.733,88.538 
				295.733,111.76 290.345,111.76 290.486,95.332 290.401,95.332 284.532,111.76 280.663,111.76 274.907,95.332 274.823,95.332 
				274.936,111.76 269.774,111.76 			"/>
			<polygon class="st4" points="193.296,120.431 207.648,120.431 207.648,125.234 198.826,125.234 198.826,143.804 193.296,143.804 
							"/>
			<path class="st4" d="M217.669,130.481c2.066,0,3.954-0.585,3.954-2.831s-1.887-2.661-3.869-2.661h-2.378v5.473L217.669,130.481z
				 M209.885,120.403h8.332c5.01,0,8.964,1.887,8.964,7.237c0,5.35-4.293,7.322-9.077,7.322h-2.718v8.813h-5.501V120.403z"/>
			<path class="st4" d="M229.389,143.804l0.689-4.718c0.667,0.223,1.363,0.351,2.066,0.377c2.01,0,2.661-1.198,3.614-3.076
				l0.113-0.236l-8.681-15.758h6.35l5.331,10.663l5.048-10.653h6.162l-8.492,16.636c-2.095,4.067-3.84,7.115-8.492,7.115
				c-1.216,0.026-2.43-0.101-3.614-0.377L229.389,143.804z"/>
			<polygon class="st4" points="251.988,120.431 271.756,120.431 271.756,143.804 266.255,143.804 266.255,125.234 257.489,125.234 
				257.489,143.804 251.988,143.804 			"/>
			<polygon class="st4" points="275.993,120.431 295.817,120.431 295.817,143.804 290.26,143.804 290.26,125.234 281.55,125.234 
				281.55,143.804 275.993,143.804 			"/>
		</g>
	</g>
	<g>
		<polygon class="st5" points="349.063,61.149 349.063,171.549 459.463,171.549 459.463,61.149 349.063,61.149 		"/>
		<g>
			<path class="st6" d="M360.544,83.914l0.212-1.309c0.913,0.359,1.685,0.54,2.314,0.54c0.493,0,0.869-0.125,1.127-0.376
				c0.238-0.226,0.357-0.517,0.357-0.873c0-0.323-0.108-0.576-0.327-0.757c-0.197-0.166-0.642-0.394-1.333-0.685
				c-0.63-0.267-1.046-0.46-1.248-0.582c-0.44-0.254-0.747-0.549-0.921-0.884c-0.142-0.279-0.212-0.602-0.212-0.97
				c0-0.828,0.289-1.472,0.866-1.933c0.493-0.396,1.163-0.594,2.012-0.594c0.703,0,1.501,0.144,2.394,0.43l-0.297,1.279
				c-0.796-0.331-1.477-0.497-2.042-0.497c-0.412,0-0.739,0.097-0.981,0.291c-0.255,0.202-0.382,0.466-0.382,0.794
				c0,0.278,0.106,0.513,0.321,0.703c0.206,0.178,0.613,0.394,1.224,0.648c0.639,0.263,1.079,0.464,1.321,0.606
				c0.469,0.274,0.791,0.598,0.97,0.969c0.145,0.307,0.218,0.663,0.218,1.066c0,0.853-0.293,1.507-0.879,1.963
				c-0.525,0.408-1.242,0.612-2.15,0.612C362.263,84.355,361.408,84.208,360.544,83.914z"/>
			<path class="st6" d="M370.613,77.757c0.989,0,1.761,0.33,2.314,0.988c0.497,0.59,0.745,1.359,0.745,2.309
				c0,1.039-0.293,1.858-0.879,2.46c-0.541,0.562-1.282,0.842-2.224,0.842c-1.014,0-1.798-0.329-2.351-0.987
				c-0.497-0.59-0.745-1.361-0.745-2.315c0-1.038,0.292-1.858,0.878-2.46C368.899,78.036,369.652,77.757,370.613,77.757z
				 M370.553,78.86c-0.578,0-1.008,0.277-1.291,0.83c-0.189,0.368-0.285,0.824-0.285,1.37c0,0.598,0.113,1.088,0.34,1.472
				c0.287,0.481,0.705,0.721,1.254,0.721c0.598,0,1.036-0.277,1.315-0.83c0.189-0.368,0.284-0.824,0.284-1.37
				c0-0.602-0.113-1.093-0.339-1.472C371.544,79.1,371.118,78.86,370.553,78.86z"/>
			<path class="st6" d="M375.441,84.216v-9.071h1.448v9.071H375.441z"/>
			<path class="st6" d="M384.612,77.89v4.103c0.004,0.844,0.022,1.585,0.055,2.224h-1.363l-0.049-0.933
				c-0.23,0.242-0.448,0.438-0.654,0.588c-0.452,0.323-0.97,0.484-1.551,0.484c-0.82,0-1.386-0.297-1.697-0.891
				c-0.182-0.347-0.272-0.937-0.272-1.769V77.89h1.448v3.733c0,0.505,0.04,0.862,0.121,1.072c0.142,0.364,0.433,0.545,0.872,0.545
				c0.578,0,1.125-0.357,1.643-1.072V77.89H384.612z"/>
			<path class="st6" d="M387.193,78.993h-1.018V77.89h1.018v-1.375l1.448-0.279v1.654h1.442v1.103h-1.442v2.939
				c0,0.428,0.042,0.725,0.127,0.891c0.125,0.247,0.366,0.37,0.722,0.37c0.178,0,0.405-0.053,0.685-0.158l0.127,1.109
				c-0.444,0.142-0.875,0.212-1.291,0.212c-0.715,0-1.218-0.218-1.508-0.654c-0.206-0.311-0.31-0.875-0.31-1.69V78.993z"/>
			<path class="st6" d="M392.402,74.939c0.279,0,0.505,0.099,0.679,0.297c0.142,0.166,0.212,0.368,0.212,0.606
				c0,0.234-0.07,0.434-0.212,0.6c-0.174,0.202-0.403,0.303-0.69,0.303s-0.518-0.101-0.69-0.303c-0.142-0.162-0.213-0.362-0.213-0.6
				c0-0.242,0.071-0.444,0.213-0.606C391.877,75.039,392.111,74.939,392.402,74.939z M391.656,84.216V77.89h1.448v6.326H391.656z"/>
			<path class="st6" d="M397.993,77.757c0.989,0,1.761,0.33,2.314,0.988c0.497,0.59,0.745,1.359,0.745,2.309
				c0,1.039-0.293,1.858-0.879,2.46c-0.541,0.562-1.282,0.842-2.224,0.842c-1.014,0-1.798-0.329-2.351-0.987
				c-0.497-0.59-0.745-1.361-0.745-2.315c0-1.038,0.292-1.858,0.878-2.46C396.278,78.036,397.031,77.757,397.993,77.757z
				 M397.933,78.86c-0.578,0-1.008,0.277-1.291,0.83c-0.189,0.368-0.285,0.824-0.285,1.37c0,0.598,0.113,1.088,0.34,1.472
				c0.287,0.481,0.705,0.721,1.254,0.721c0.598,0,1.036-0.277,1.315-0.83c0.189-0.368,0.284-0.824,0.284-1.37
				c0-0.602-0.113-1.093-0.339-1.472C398.924,79.1,398.498,78.86,397.933,78.86z"/>
			<path class="st6" d="M402.826,84.216v-4.108c-0.004-0.771-0.017-1.375-0.036-1.812l-0.019-0.406h1.363l0.049,0.934
				c0.246-0.259,0.466-0.455,0.66-0.588c0.465-0.323,0.991-0.485,1.581-0.485c0.833,0,1.406,0.297,1.722,0.891
				c0.186,0.344,0.278,0.933,0.278,1.77v3.805h-1.448v-3.732c0-0.505-0.04-0.862-0.121-1.073c-0.146-0.363-0.448-0.545-0.909-0.545
				c-0.59,0-1.147,0.358-1.672,1.073v4.278H402.826z"/>
		</g>
		<g>
			<path class="st6" d="M360.956,100.444v-8.586h2.066c0.711,0,1.272,0.048,1.685,0.146c0.598,0.141,1.056,0.46,1.375,0.957
				c0.267,0.412,0.4,0.903,0.4,1.473c0,0.929-0.338,1.622-1.013,2.078c-0.339,0.23-0.771,0.38-1.296,0.449
				c-0.287,0.036-0.629,0.054-1.024,0.054h-0.69v3.43H360.956z M362.435,95.839h0.484c0.671,0,1.146-0.069,1.424-0.206
				c0.404-0.198,0.606-0.584,0.606-1.157c0-0.542-0.185-0.931-0.552-1.169c-0.274-0.182-0.743-0.273-1.405-0.273h-0.558V95.839z"/>
			<path class="st6" d="M371.389,99.723c-0.218,0.23-0.426,0.406-0.624,0.527c-0.376,0.222-0.818,0.333-1.327,0.333
				c-0.654,0-1.157-0.173-1.509-0.521c-0.355-0.343-0.533-0.808-0.533-1.394c0-0.792,0.321-1.374,0.964-1.745
				c0.403-0.234,1.04-0.352,1.908-0.352c0.234,0,0.582,0.012,1.042,0.037v-0.115c0-0.958-0.466-1.436-1.399-1.436
				c-0.529,0-1.099,0.176-1.709,0.527l-0.388-1.042c0.735-0.372,1.497-0.558,2.284-0.558c1.022,0,1.754,0.275,2.194,0.824
				c0.226,0.287,0.369,0.673,0.43,1.157c0.024,0.214,0.036,0.54,0.036,0.976v1.891c0.013,0.828,0.032,1.365,0.061,1.612h-1.375
				L371.389,99.723z M371.31,97.518c-0.238-0.02-0.456-0.03-0.654-0.03c-0.585,0-1.008,0.081-1.266,0.243
				c-0.328,0.206-0.491,0.509-0.491,0.909c0,0.271,0.083,0.495,0.248,0.672c0.178,0.19,0.423,0.285,0.733,0.285
				c0.554,0,1.03-0.295,1.43-0.885V97.518z"/>
			<path class="st6" d="M375.017,100.444V96.5c0.004-0.795-0.015-1.589-0.055-2.381h1.363l0.049,1.188
				c0.376-0.86,0.933-1.291,1.672-1.291c0.174,0,0.357,0.024,0.552,0.072l-0.085,1.285c-0.186-0.04-0.348-0.061-0.484-0.061
				c-0.461,0-0.849,0.206-1.164,0.618c-0.173,0.226-0.309,0.505-0.405,0.836v3.678H375.017z"/>
		</g>
		<g>
			<path class="st6" d="M380.55,95.305l-1.018,0.007l-0.009-1.103l1.018-0.007l-0.011-1.375l1.446-0.29l0.013,1.654l1.442-0.011
				l0.009,1.103l-1.442,0.011l0.021,2.938c0.004,0.428,0.048,0.725,0.134,0.89c0.127,0.246,0.369,0.367,0.725,0.364
				c0.178-0.001,0.405-0.056,0.684-0.163l0.135,1.108c-0.442,0.145-0.873,0.218-1.289,0.221c-0.715,0.006-1.22-0.208-1.513-0.643
				c-0.208-0.31-0.316-0.872-0.322-1.688L380.55,95.305z"/>
			<path class="st6" d="M385.071,100.494l-0.031-4.108c-0.01-0.771-0.026-1.375-0.05-1.811l-0.021-0.406l1.363-0.01l0.056,0.933
				c0.244-0.261,0.463-0.458,0.656-0.593c0.462-0.327,0.987-0.492,1.577-0.497c0.833-0.006,1.408,0.286,1.729,0.877
				c0.188,0.342,0.285,0.931,0.292,1.767l0.028,3.805l-1.448,0.011l-0.028-3.732c-0.004-0.504-0.046-0.861-0.129-1.071
				c-0.148-0.362-0.452-0.542-0.913-0.539c-0.59,0.004-1.146,0.367-1.664,1.085l0.032,4.277L385.071,100.494z"/>
			<path class="st6" d="M393.89,97.725c0.053,0.521,0.188,0.914,0.409,1.178c0.325,0.381,0.805,0.57,1.435,0.565
				c0.621-0.004,1.245-0.213,1.872-0.626l0.523,1.063c-0.729,0.426-1.536,0.642-2.424,0.648c-1.115,0.008-1.962-0.298-2.54-0.92
				c-0.525-0.558-0.792-1.337-0.799-2.339c-0.008-1.058,0.28-1.894,0.865-2.509c0.517-0.545,1.229-0.821,2.139-0.828
				c1.336-0.01,2.209,0.501,2.616,1.532c0.202,0.512,0.311,1.246,0.325,2.203L393.89,97.725z M396.819,96.678
				c-0.015-0.375-0.09-0.696-0.225-0.961c-0.242-0.463-0.647-0.692-1.217-0.688c-0.558,0.004-0.968,0.238-1.23,0.7
				c-0.155,0.272-0.24,0.596-0.254,0.971L396.819,96.678z"/>
			<path class="st6" d="M400.088,100.38l-0.029-3.945c-0.003-0.795-0.027-1.589-0.073-2.38l1.363-0.01l0.058,1.188
				c0.37-0.863,0.923-1.297,1.662-1.303c0.174-0.001,0.358,0.021,0.553,0.068l-0.075,1.285c-0.186-0.039-0.349-0.058-0.485-0.057
				c-0.461,0.004-0.847,0.213-1.159,0.627c-0.171,0.228-0.305,0.507-0.398,0.839l0.027,3.678L400.088,100.38z"/>
		</g>
		<path class="st6" d="M466.435,61.626c0,36.481,0,72.965,0,109.445c36.48,0,72.964,0,109.446,0c0-36.481,0-72.964,0-109.445
			C539.399,61.626,502.915,61.626,466.435,61.626L466.435,61.626z"/>
		<path class="st7" d="M480.988,110.635L480.988,110.635c-0.93,0.639-1.401,1.582-1.401,2.804c0,0.948,0.323,1.743,0.961,2.364
			c0.496,0.474,1.586,1.06,3.239,1.739c0.947,0.389,1.522,0.687,1.757,0.91c0.235,0.216,0.354,0.487,0.354,0.805
			c0,0.845-0.789,1.273-2.345,1.273c-1.074,0-2.323-0.221-3.709-0.649c0,0.175,0,2.238,0,2.347c1.29,0.297,2.587,0.449,3.858,0.449
			c1.52,0,2.773-0.292,3.723-0.867c1.165-0.704,1.756-1.741,1.756-3.08c0-0.931-0.3-1.7-0.892-2.286
			c-0.505-0.499-1.537-1.097-3.067-1.776c-1.09-0.491-1.737-0.803-1.979-0.954c-0.308-0.199-0.464-0.46-0.464-0.778
			c0-0.827,0.742-1.246,2.205-1.246c0.985,0,2.064,0.23,3.206,0.674c0-0.185,0-2.132,0-2.243c-1.539-0.297-2.737-0.45-3.554-0.45
			C483.143,109.672,481.915,109.996,480.988,110.635L480.988,110.635z"/>
		<path class="st7" d="M491.328,109.892c0,0.144,0,12.385,0,12.529c0.138,0,3.256,0,3.394,0c0-0.144,0-12.385,0-12.529
			C494.584,109.892,491.465,109.892,491.328,109.892L491.328,109.892z"/>
		<path class="st7" d="M498.115,109.892c0,0.144,0,12.385,0,12.529c0.143,0,8.937,0,9.08,0c0-0.134,0-2.141,0-2.274
			c-0.143,0-5.741,0-5.741,0c-0.04,0-0.073-0.033-0.073-0.073v-3.008c0-0.04,0.033-0.073,0.073-0.073c0,0,4.719,0,4.861,0
			c0-0.132,0-1.813,0-1.945c-0.142,0-4.861,0-4.861,0c-0.04,0-0.073-0.033-0.073-0.073v-2.862c0-0.04,0.033-0.073,0.073-0.073
			c0,0,5.452,0,5.595,0c0-0.133,0-2.014,0-2.146C506.905,109.892,498.258,109.892,498.115,109.892L498.115,109.892z"/>
		<path class="st7" d="M520.678,109.892c-0.037,0.091-3.251,8.053-3.251,8.053c-0.011,0.028-0.038,0.046-0.068,0.046h0
			c-0.03,0-0.057-0.019-0.068-0.046c0,0-3.135-7.96-3.171-8.052c-0.096,0-4.327,0-4.467,0c0,0.144,0,12.385,0,12.529
			c0.134,0,2.214,0,2.348,0c0-0.144,0-8.901,0-8.901c0-0.035,0.025-0.065,0.059-0.072c0.034-0.007,0.069,0.012,0.082,0.045
			c0,0,3.591,8.965,3.627,9.057c0.093,0,2.004,0,2.096,0c0.037-0.09,3.698-9.057,3.698-9.057c0.013-0.032,0.048-0.051,0.082-0.044
			c0.034,0.007,0.059,0.037,0.059,0.072c0,0,0,8.756,0,8.901c0.137,0,3.073,0,3.21,0c0-0.144,0-12.385,0-12.529
			C524.775,109.892,520.773,109.892,520.678,109.892L520.678,109.892z"/>
		<path class="st7" d="M528.308,109.892c0,0.144,0,12.385,0,12.529c0.143,0,8.937,0,9.08,0c0-0.134,0-2.141,0-2.274
			c-0.143,0-5.741,0-5.741,0c-0.04,0-0.073-0.033-0.073-0.073v-3.008c0-0.04,0.033-0.073,0.073-0.073c0,0,4.719,0,4.861,0
			c0-0.132,0-1.813,0-1.945c-0.142,0-4.861,0-4.861,0c-0.04,0-0.073-0.033-0.073-0.073v-2.862c0-0.04,0.033-0.073,0.073-0.073
			c0,0,5.452,0,5.594,0c0-0.133,0-2.014,0-2.146C537.099,109.892,528.451,109.892,528.308,109.892L528.308,109.892z"/>
		<path class="st7" d="M548.321,109.892c0,0.144,0,8.412,0,8.412c0,0.034-0.023,0.063-0.056,0.071
			c-0.033,0.008-0.067-0.008-0.082-0.038c0,0-4.292-8.366-4.333-8.445c-0.086,0-3.846,0-3.985,0c0,0.144,0,12.385,0,12.529
			c0.134,0,2.214,0,2.348,0c0-0.144,0-8.526,0-8.526c0-0.034,0.023-0.063,0.056-0.071c0.033-0.008,0.067,0.007,0.082,0.037
			c0,0,4.407,8.482,4.448,8.56c0.085,0,3.729,0,3.869,0c0-0.144,0-12.385,0-12.529C550.535,109.892,548.455,109.892,548.321,109.892
			L548.321,109.892z"/>
		<path class="st7" d="M554.473,110.635L554.473,110.635c-0.93,0.638-1.401,1.579-1.401,2.795c0,0.959,0.323,1.758,0.961,2.373
			c0.5,0.48,1.59,1.065,3.239,1.74c0.952,0.389,1.53,0.687,1.765,0.91c0.228,0.217,0.344,0.488,0.344,0.805
			c0,0.845-0.789,1.273-2.344,1.273c-1.086,0-2.335-0.221-3.709-0.649c0,0.175,0,2.237,0,2.347c1.289,0.297,2.586,0.449,3.858,0.449
			c1.52,0,2.776-0.292,3.732-0.867c1.159-0.704,1.746-1.74,1.746-3.08c0-0.932-0.3-1.701-0.892-2.285
			c-0.507-0.498-1.536-1.096-3.058-1.776c-1.107-0.496-1.758-0.809-1.988-0.954c-0.307-0.199-0.463-0.46-0.463-0.778
			c0-0.827,0.739-1.246,2.196-1.246c0.991,0,2.072,0.23,3.214,0.674c0-0.185,0-2.13,0-2.242c-0.079-0.014-0.252-0.044-0.252-0.044
			c-1.345-0.27-2.455-0.406-3.301-0.406C556.627,109.672,555.399,109.996,554.473,110.635L554.473,110.635z"/>
		<path class="st8" d="M479.771,122.288v-2.503c1.425,0.449,2.686,0.673,3.782,0.673c1.514,0,2.271-0.4,2.271-1.2
			c0-0.298-0.111-0.549-0.331-0.752c-0.226-0.215-0.805-0.513-1.734-0.895c-1.668-0.686-2.756-1.271-3.262-1.755
			c-0.656-0.639-0.983-1.444-0.983-2.417c0-1.253,0.478-2.208,1.432-2.864c0.944-0.651,2.174-0.976,3.69-0.976
			c0.836,0,2.045,0.154,3.627,0.462v2.408c-1.177-0.47-2.27-0.705-3.279-0.705c-1.421,0-2.132,0.391-2.132,1.173
			c0,0.292,0.143,0.531,0.43,0.716c0.239,0.15,0.895,0.466,1.97,0.949c1.546,0.687,2.576,1.284,3.089,1.791
			c0.609,0.603,0.913,1.382,0.913,2.338c0,1.373-0.597,2.421-1.791,3.142c-0.967,0.585-2.221,0.877-3.761,0.877
			C482.402,122.749,481.091,122.596,479.771,122.288L479.771,122.288L479.771,122.288z"/>
		<polygon class="st8" points="491.254,122.493 491.254,109.818 494.795,109.818 494.795,122.493 491.254,122.493 491.254,122.493 
					"/>
		<polygon class="st8" points="498.042,122.493 498.042,109.818 507.122,109.818 507.122,112.111 501.453,112.111 501.453,114.973 
			506.388,114.973 506.388,117.064 501.453,117.064 501.453,120.073 507.268,120.073 507.268,122.493 498.042,122.493 
			498.042,122.493 		"/>
		<polygon class="st8" points="509.58,122.493 509.58,109.818 514.17,109.818 517.359,117.917 520.628,109.818 524.988,109.818 
			524.988,122.493 521.631,122.493 521.631,113.52 517.914,122.622 515.72,122.622 512.074,113.52 512.074,122.493 509.58,122.493 
			509.58,122.493 		"/>
		<polygon class="st8" points="528.235,122.493 528.235,109.818 537.315,109.818 537.315,112.111 531.647,112.111 531.647,114.973 
			536.581,114.973 536.581,117.064 531.647,117.064 531.647,120.073 537.462,120.073 537.462,122.493 528.235,122.493 
			528.235,122.493 		"/>
		<polygon class="st8" points="539.792,122.493 539.792,109.818 543.895,109.818 548.248,118.303 548.248,109.818 550.742,109.818 
			550.742,122.493 546.755,122.493 542.286,113.894 542.286,122.493 539.792,122.493 539.792,122.493 		"/>
		<path class="st8" d="M553.255,122.288v-2.503c1.412,0.449,2.673,0.673,3.783,0.673c1.514,0,2.271-0.4,2.271-1.2
			c0-0.298-0.108-0.549-0.321-0.752c-0.227-0.215-0.807-0.513-1.743-0.895c-1.663-0.68-2.752-1.265-3.262-1.755
			c-0.656-0.633-0.983-1.441-0.983-2.426c0-1.247,0.477-2.199,1.432-2.856c0.943-0.651,2.174-0.976,3.691-0.976
			c0.853,0,1.958,0.136,3.313,0.407l0.313,0.054v2.408c-1.177-0.47-2.273-0.705-3.288-0.705c-1.416,0-2.123,0.391-2.123,1.173
			c0,0.292,0.142,0.531,0.429,0.716c0.227,0.143,0.887,0.46,1.979,0.949c1.534,0.687,2.562,1.284,3.08,1.791
			c0.61,0.603,0.914,1.382,0.914,2.338c0,1.373-0.594,2.421-1.782,3.142c-0.973,0.585-2.23,0.877-3.77,0.877
			C555.885,122.749,554.574,122.596,553.255,122.288L553.255,122.288L553.255,122.288z"/>
		<path class="st9" d="M466.435,61.626c0,36.481,0,72.965,0,109.445c36.48,0,72.964,0,109.446,0c0-36.481,0-72.964,0-109.445
			C539.399,61.626,502.915,61.626,466.435,61.626L466.435,61.626z"/>
		<g>
			<path class="st6" d="M360.729,142.729v-8.586h1.921c0.666,0,1.22,0.038,1.66,0.115c0.957,0.173,1.67,0.656,2.139,1.448
				c0.424,0.719,0.636,1.612,0.636,2.678c0,1.034-0.197,1.905-0.594,2.612c-0.488,0.869-1.229,1.402-2.224,1.6
				c-0.456,0.089-1.04,0.133-1.751,0.133H360.729z M361.722,141.912h0.867c1.018,0,1.777-0.184,2.278-0.552
				c0.392-0.287,0.692-0.713,0.902-1.278c0.174-0.464,0.261-1.008,0.261-1.63c0-0.941-0.188-1.727-0.563-2.357
				c-0.348-0.586-0.873-0.938-1.575-1.055c-0.308-0.052-0.79-0.079-1.448-0.079h-0.722V141.912z"/>
			<path class="st6" d="M369.235,133.538c0.229,0,0.407,0.087,0.533,0.26c0.085,0.117,0.127,0.255,0.127,0.412
				c0,0.154-0.042,0.289-0.127,0.406c-0.126,0.173-0.308,0.26-0.546,0.26c-0.234,0-0.414-0.087-0.539-0.26
				c-0.085-0.117-0.127-0.252-0.127-0.406c0-0.157,0.042-0.295,0.127-0.412C368.808,133.625,368.991,133.538,369.235,133.538z
				 M368.755,142.729v-6.29h0.945v6.29H368.755z"/>
			<path class="st6" d="M375.734,136.44h0.921c-0.032,0.969-0.049,1.795-0.049,2.478v3.145c0,0.707-0.042,1.246-0.127,1.618
				c-0.138,0.59-0.469,1.059-0.993,1.406c-0.44,0.291-0.97,0.437-1.588,0.437c-0.836,0-1.628-0.229-2.375-0.685l0.405-0.728
				c0.635,0.437,1.285,0.655,1.951,0.655c0.739,0,1.253-0.299,1.539-0.897c0.162-0.335,0.242-0.909,0.242-1.721v-0.521
				c-0.585,0.663-1.226,0.994-1.92,0.994c-0.703,0-1.287-0.283-1.752-0.849c-0.456-0.553-0.685-1.305-0.685-2.254
				c0-1.026,0.253-1.838,0.758-2.436c0.432-0.509,0.998-0.763,1.696-0.763c0.828,0,1.475,0.363,1.939,1.09L375.734,136.44z
				 M375.66,138.288c-0.169-0.323-0.359-0.576-0.569-0.757c-0.352-0.303-0.729-0.455-1.133-0.455c-0.562,0-0.987,0.254-1.278,0.764
				c-0.255,0.448-0.382,1.003-0.382,1.666c0,0.643,0.133,1.182,0.399,1.618c0.308,0.493,0.739,0.739,1.297,0.739
				c0.675,0,1.23-0.367,1.666-1.103V138.288z"/>
			<path class="st6" d="M379.174,133.538c0.229,0,0.407,0.087,0.533,0.26c0.085,0.117,0.127,0.255,0.127,0.412
				c0,0.154-0.042,0.289-0.127,0.406c-0.126,0.173-0.308,0.26-0.546,0.26c-0.234,0-0.414-0.087-0.539-0.26
				c-0.085-0.117-0.127-0.252-0.127-0.406c0-0.157,0.042-0.295,0.127-0.412C378.747,133.625,378.931,133.538,379.174,133.538z
				 M378.694,142.729v-6.29h0.945v6.29H378.694z"/>
			<path class="st6" d="M382.063,137.197h-1.018v-0.757h1.018v-1.375l0.945-0.2v1.576h1.484v0.757h-1.484v3.436
				c0,0.521,0.044,0.877,0.133,1.066c0.13,0.263,0.368,0.394,0.716,0.394c0.21,0,0.45-0.063,0.721-0.188l0.085,0.751
				c-0.364,0.129-0.703,0.194-1.019,0.194c-0.63,0-1.066-0.194-1.309-0.582c-0.182-0.287-0.272-0.77-0.272-1.448V137.197z"/>
			<path class="st6" d="M389.247,141.996c-0.214,0.23-0.42,0.406-0.618,0.527c-0.363,0.218-0.783,0.327-1.26,0.327
				c-0.659,0-1.162-0.186-1.509-0.557c-0.308-0.328-0.461-0.76-0.461-1.297c0-0.832,0.35-1.422,1.048-1.77
				c0.408-0.206,1.015-0.309,1.818-0.309c0.165,0,0.469,0.008,0.909,0.024v-0.169c0-0.457-0.059-0.804-0.176-1.042
				c-0.21-0.436-0.627-0.654-1.249-0.654c-0.509,0-1.05,0.182-1.623,0.545l-0.412-0.679c0.658-0.416,1.371-0.624,2.139-0.624
				c0.953,0,1.605,0.285,1.957,0.854c0.166,0.271,0.263,0.659,0.291,1.164c0.012,0.178,0.019,0.435,0.019,0.77v2.054
				c-0.005,0.606,0.012,1.129,0.048,1.569h-0.879L389.247,141.996z M389.175,139.664c-0.223-0.016-0.459-0.024-0.709-0.024
				c-0.671,0-1.16,0.089-1.467,0.267c-0.404,0.23-0.605,0.586-0.605,1.066c0,0.339,0.101,0.61,0.303,0.812
				c0.21,0.206,0.49,0.309,0.842,0.309c0.659,0,1.204-0.321,1.637-0.963V139.664z"/>
			<path class="st6" d="M392.208,142.729v-9.071h0.945v9.071H392.208z"/>
			<path class="st6" d="M398.301,142.729v-8.586h0.993v8.586H398.301z"/>
			<path class="st6" d="M401.412,142.729v-4.242c-0.004-1.026-0.02-1.708-0.048-2.048h0.933l0.037,1.006
				c0.238-0.25,0.462-0.453,0.672-0.606c0.477-0.347,1.015-0.521,1.612-0.521c0.796,0,1.341,0.291,1.636,0.873
				c0.129,0.258,0.208,0.622,0.236,1.09c0.017,0.283,0.024,0.554,0.024,0.812v3.636h-0.945v-3.654c0-0.63-0.045-1.072-0.134-1.327
				c-0.157-0.448-0.519-0.672-1.084-0.672c-0.683,0-1.348,0.392-1.994,1.175v4.478H401.412z"/>
			<path class="st6" d="M412.403,133.659h0.945v6.78c0,0.626,0.014,1.315,0.042,2.066l0.006,0.224h-0.891l-0.03-0.958
				c-0.23,0.299-0.43,0.517-0.6,0.655c-0.348,0.283-0.773,0.424-1.278,0.424c-0.764,0-1.378-0.313-1.843-0.939
				c-0.456-0.618-0.685-1.408-0.685-2.369c0-1.01,0.259-1.816,0.775-2.418c0.461-0.537,1.028-0.806,1.703-0.806
				c0.747,0,1.365,0.329,1.854,0.987V133.659z M412.403,138.251c-0.404-0.784-0.96-1.175-1.667-1.175
				c-0.533,0-0.941,0.222-1.224,0.667c-0.299,0.473-0.448,1.081-0.448,1.824c0,0.691,0.127,1.269,0.382,1.733
				c0.291,0.529,0.725,0.794,1.303,0.794c0.44,0,0.83-0.176,1.169-0.527c0.149-0.161,0.312-0.377,0.485-0.648V138.251z"/>
			<path class="st6" d="M420.412,136.44v4.242c0.004,1.05,0.02,1.733,0.048,2.048h-0.933l-0.037-1.006
				c-0.222,0.238-0.442,0.437-0.66,0.594c-0.497,0.355-1.021,0.533-1.575,0.533c-0.78,0-1.315-0.291-1.605-0.873
				c-0.13-0.262-0.208-0.626-0.236-1.09c-0.017-0.271-0.024-0.542-0.024-0.812v-3.636h0.945v3.654c0,0.634,0.044,1.077,0.133,1.327
				c0.153,0.448,0.503,0.672,1.049,0.672c0.666,0,1.316-0.392,1.951-1.175v-4.478H420.412z"/>
			<path class="st6" d="M422.027,142.42l0.285-0.745c0.578,0.279,1.087,0.418,1.527,0.418c0.318,0,0.596-0.087,0.83-0.261
				c0.25-0.186,0.375-0.452,0.375-0.8c0-0.278-0.082-0.491-0.248-0.636c-0.142-0.125-0.479-0.289-1.012-0.491
				c-0.424-0.166-0.724-0.305-0.896-0.418c-0.558-0.352-0.837-0.822-0.837-1.412c0-0.554,0.217-0.998,0.648-1.333
				c0.368-0.283,0.841-0.424,1.418-0.424c0.59,0,1.188,0.155,1.794,0.466l-0.285,0.746c-0.452-0.303-0.927-0.455-1.424-0.455
				c-0.323,0-0.588,0.069-0.794,0.206c-0.242,0.158-0.363,0.396-0.363,0.715c0,0.291,0.119,0.521,0.357,0.691
				c0.174,0.121,0.482,0.271,0.927,0.448c0.493,0.198,0.83,0.362,1.012,0.491c0.465,0.319,0.697,0.766,0.697,1.339
				c0,0.606-0.229,1.081-0.685,1.424c-0.404,0.307-0.913,0.46-1.527,0.46C423.234,142.851,422.634,142.708,422.027,142.42z"/>
			<path class="st6" d="M427.988,137.197h-1.018v-0.757h1.018v-1.375l0.945-0.2v1.576h1.484v0.757h-1.484v3.436
				c0,0.521,0.044,0.877,0.133,1.066c0.13,0.263,0.368,0.394,0.716,0.394c0.21,0,0.45-0.063,0.721-0.188l0.085,0.751
				c-0.364,0.129-0.703,0.194-1.019,0.194c-0.63,0-1.066-0.194-1.309-0.582c-0.182-0.287-0.272-0.77-0.272-1.448V137.197z"/>
			<path class="st6" d="M431.853,142.729v-3.587c0-0.824-0.013-1.628-0.036-2.412l-0.007-0.291h0.879l0.036,1.157
				c0.21-0.388,0.437-0.687,0.679-0.896c0.291-0.255,0.654-0.382,1.091-0.382c0.129,0,0.274,0.014,0.437,0.042l-0.085,0.848
				c-0.113-0.024-0.223-0.037-0.327-0.037c-0.469,0-0.881,0.232-1.236,0.697c-0.198,0.267-0.359,0.56-0.484,0.878v3.981H431.853z"/>
			<path class="st6" d="M436.602,133.538c0.229,0,0.407,0.087,0.533,0.26c0.085,0.117,0.127,0.255,0.127,0.412
				c0,0.154-0.042,0.289-0.127,0.406c-0.126,0.173-0.308,0.26-0.546,0.26c-0.234,0-0.414-0.087-0.539-0.26
				c-0.085-0.117-0.127-0.252-0.127-0.406c0-0.157,0.042-0.295,0.127-0.412C436.175,133.625,436.359,133.538,436.602,133.538z
				 M436.122,142.729v-6.29h0.945v6.29H436.122z"/>
			<path class="st6" d="M439.671,139.839c0.068,0.703,0.23,1.226,0.484,1.569c0.348,0.457,0.861,0.685,1.539,0.685
				c0.578,0,1.151-0.198,1.722-0.594l0.363,0.733c-0.654,0.412-1.355,0.618-2.103,0.618c-0.994,0-1.76-0.325-2.297-0.976
				c-0.469-0.569-0.703-1.333-0.703-2.291c0-1.159,0.313-2.03,0.939-2.611c0.469-0.437,1.068-0.654,1.8-0.654
				c1.119,0,1.87,0.458,2.254,1.375c0.214,0.517,0.329,1.232,0.346,2.145H439.671z M443.01,139.082
				c-0.013-0.464-0.093-0.852-0.242-1.163c-0.271-0.562-0.731-0.842-1.382-0.842c-0.622,0-1.089,0.277-1.399,0.83
				c-0.178,0.319-0.275,0.711-0.291,1.175H443.01z"/>
			<path class="st6" d="M445.129,142.42l0.285-0.745c0.578,0.279,1.087,0.418,1.527,0.418c0.318,0,0.596-0.087,0.83-0.261
				c0.25-0.186,0.375-0.452,0.375-0.8c0-0.278-0.082-0.491-0.248-0.636c-0.142-0.125-0.479-0.289-1.012-0.491
				c-0.424-0.166-0.724-0.305-0.896-0.418c-0.558-0.352-0.837-0.822-0.837-1.412c0-0.554,0.217-0.998,0.648-1.333
				c0.368-0.283,0.841-0.424,1.418-0.424c0.59,0,1.188,0.155,1.794,0.466l-0.285,0.746c-0.452-0.303-0.927-0.455-1.424-0.455
				c-0.323,0-0.588,0.069-0.794,0.206c-0.242,0.158-0.363,0.396-0.363,0.715c0,0.291,0.119,0.521,0.357,0.691
				c0.174,0.121,0.482,0.271,0.927,0.448c0.493,0.198,0.83,0.362,1.012,0.491c0.465,0.319,0.697,0.766,0.697,1.339
				c0,0.606-0.229,1.081-0.685,1.424c-0.404,0.307-0.913,0.46-1.527,0.46C446.335,142.851,445.736,142.708,445.129,142.42z"/>
		</g>
		<text transform="matrix(1 0 0 1 449.8497 142.7296)" class="st6 st10 st11"> </text>
		<g>
			<path class="st6" d="M360.371,158.696l0.127-0.866c0.783,0.287,1.48,0.43,2.091,0.43c0.549,0,0.983-0.146,1.303-0.437
				c0.303-0.274,0.454-0.638,0.454-1.09c0-0.424-0.127-0.753-0.382-0.988c-0.21-0.202-0.667-0.458-1.369-0.77
				c-0.626-0.279-1.045-0.483-1.255-0.612c-0.412-0.259-0.698-0.554-0.86-0.885c-0.129-0.263-0.193-0.565-0.193-0.909
				c0-0.719,0.244-1.284,0.733-1.696c0.488-0.416,1.141-0.624,1.957-0.624c0.573,0,1.248,0.127,2.023,0.381l-0.2,0.891
				c-0.634-0.303-1.246-0.455-1.836-0.455c-0.452,0-0.834,0.117-1.145,0.352c-0.319,0.238-0.479,0.562-0.479,0.969
				c0,0.327,0.105,0.606,0.315,0.836c0.161,0.178,0.35,0.321,0.563,0.43c0.218,0.117,0.477,0.238,0.775,0.363
				c0.61,0.254,1.04,0.465,1.291,0.63c0.743,0.489,1.115,1.155,1.115,2c0,0.764-0.27,1.365-0.807,1.806
				c-0.513,0.416-1.191,0.624-2.035,0.624C361.9,159.078,361.171,158.951,360.371,158.696z"/>
			<path class="st6" d="M369.531,152.546c0.893,0,1.613,0.345,2.163,1.036c0.464,0.582,0.696,1.325,0.696,2.229
				c0,0.974-0.269,1.759-0.806,2.357c-0.545,0.606-1.242,0.909-2.091,0.909c-0.917,0-1.649-0.345-2.199-1.036
				c-0.465-0.585-0.697-1.331-0.697-2.236c0-0.978,0.27-1.763,0.807-2.357C367.945,152.847,368.654,152.546,369.531,152.546z
				 M369.471,153.304c-0.389,0-0.735,0.119-1.043,0.357c-0.558,0.437-0.836,1.153-0.836,2.151c0,0.691,0.146,1.261,0.437,1.709
				c0.348,0.533,0.836,0.8,1.466,0.8c0.683,0,1.196-0.309,1.539-0.927c0.243-0.428,0.364-0.957,0.364-1.587
				c0-0.691-0.146-1.258-0.437-1.703C370.613,153.57,370.116,153.304,369.471,153.304z"/>
			<path class="st6" d="M374.346,158.957v-5.532h-1.018v-0.757h1.018v-0.6c0-0.739,0.103-1.276,0.309-1.612
				c0.283-0.46,0.762-0.69,1.437-0.69c0.274,0,0.569,0.041,0.885,0.121l-0.085,0.818c-0.223-0.121-0.463-0.182-0.721-0.182
				c-0.4,0-0.659,0.19-0.776,0.569c-0.068,0.223-0.103,0.574-0.103,1.055v0.521h1.484v0.757h-1.484v5.532H374.346z"/>
		</g>
		<g>
			<path class="st6" d="M378.691,153.425h-1.018v-0.757h1.018v-1.375l0.945-0.2v1.576h1.484v0.757h-1.484v3.436
				c0,0.521,0.044,0.877,0.133,1.066c0.13,0.263,0.368,0.394,0.716,0.394c0.21,0,0.45-0.063,0.721-0.188l0.085,0.751
				c-0.364,0.129-0.703,0.194-1.019,0.194c-0.63,0-1.066-0.194-1.309-0.582c-0.182-0.287-0.272-0.77-0.272-1.448V153.425z"/>
			<path class="st6" d="M383.536,158.957l-1.727-6.29h0.969l1.036,3.938c0.158,0.594,0.287,1.109,0.389,1.545
				c0.116-0.457,0.26-0.986,0.43-1.588l1.097-3.896h1.23l1.127,3.805c0.174,0.598,0.331,1.157,0.473,1.679
				c0.121-0.493,0.261-1.03,0.418-1.612l1.048-3.872h0.854l-1.763,6.29h-1.188l-1.211-4.018c-0.166-0.549-0.31-1.046-0.431-1.49
				c-0.125,0.493-0.267,1.016-0.424,1.569l-1.127,3.938H383.536z"/>
			<path class="st6" d="M395.569,158.224c-0.214,0.23-0.42,0.406-0.618,0.527c-0.363,0.218-0.783,0.327-1.26,0.327
				c-0.659,0-1.162-0.186-1.509-0.557c-0.308-0.328-0.461-0.76-0.461-1.297c0-0.832,0.35-1.422,1.048-1.77
				c0.408-0.206,1.015-0.309,1.818-0.309c0.165,0,0.469,0.008,0.909,0.024V155c0-0.457-0.059-0.804-0.176-1.042
				c-0.21-0.436-0.627-0.654-1.249-0.654c-0.509,0-1.05,0.182-1.623,0.545l-0.412-0.679c0.658-0.416,1.371-0.624,2.139-0.624
				c0.953,0,1.605,0.285,1.957,0.854c0.166,0.271,0.263,0.659,0.291,1.164c0.012,0.178,0.019,0.435,0.019,0.77v2.054
				c-0.005,0.606,0.012,1.129,0.048,1.569h-0.879L395.569,158.224z M395.496,155.891c-0.223-0.016-0.459-0.024-0.709-0.024
				c-0.671,0-1.16,0.089-1.467,0.267c-0.404,0.23-0.605,0.586-0.605,1.066c0,0.339,0.101,0.61,0.303,0.812
				c0.21,0.206,0.49,0.309,0.842,0.309c0.659,0,1.204-0.321,1.637-0.963V155.891z"/>
			<path class="st6" d="M398.542,158.957v-3.587c0-0.824-0.013-1.628-0.036-2.412l-0.007-0.291h0.879l0.036,1.157
				c0.21-0.388,0.437-0.687,0.679-0.896c0.291-0.255,0.654-0.382,1.091-0.382c0.129,0,0.274,0.014,0.437,0.042l-0.085,0.848
				c-0.113-0.024-0.223-0.037-0.327-0.037c-0.469,0-0.881,0.232-1.236,0.697c-0.198,0.267-0.359,0.56-0.484,0.878v3.981H398.542z"/>
		</g>
		<g>
			<path class="st6" d="M403.095,156.067c0.068,0.703,0.23,1.226,0.484,1.569c0.348,0.457,0.861,0.685,1.539,0.685
				c0.578,0,1.151-0.198,1.722-0.594l0.363,0.733c-0.654,0.412-1.355,0.618-2.103,0.618c-0.994,0-1.76-0.325-2.297-0.976
				c-0.469-0.569-0.703-1.333-0.703-2.291c0-1.159,0.313-2.03,0.939-2.611c0.469-0.437,1.068-0.654,1.8-0.654
				c1.119,0,1.87,0.458,2.254,1.375c0.214,0.517,0.329,1.232,0.346,2.145H403.095z M406.434,155.309
				c-0.013-0.464-0.093-0.852-0.242-1.163c-0.271-0.562-0.731-0.842-1.382-0.842c-0.622,0-1.089,0.277-1.399,0.83
				c-0.178,0.319-0.275,0.711-0.291,1.175H406.434z"/>
		</g>
		<rect x="294.945" y="7.508" class="st12" width="335.054" height="218.159"/>
	</g>
</g>
</svg>
